<svg width="517.5900634765625px" height="125.0175048828125px" xmlns="http://www.w3.org/2000/svg" viewBox="-8.795031738281239 12.491247558593749 517.5900634765625 125.0175048828125" style="background: rgba(0, 0, 0, 0);" preserveAspectRatio="xMidYMid"><defs><linearGradient id="editing-outline-gradient" x1="-0.41354545764260087" x2="1.4135454576426008" y1="0.09326335692419985" y2="0.9067366430758002"><stop offset="0" stop-color="#ee4208"></stop><stop offset="1" stop-color="#4139ff"></stop></linearGradient><filter id="editing-outline" x="-100%" y="-100%" width="300%" height="300%"><feMorphology in="SourceGraphic" operator="dilate" radius="1" result="outline"></feMorphology><feComposite operator="out" in="outline" in2="SourceAlpha"></feComposite></filter></defs><g filter="url(#editing-outline)"><g transform="translate(66.2950029373169, 106.67500114440918)"><path d="M3.56-43.25L3.56-48.63L13.81-48.63L13.81-28.81L14-28.81L14-28.81Q14.88-29.69 16.02-30.45L16.02-30.45L16.02-30.45Q17.16-31.22 18.41-31.78L18.41-31.78L18.41-31.78Q19.66-32.34 21-32.66L21-32.66L21-32.66Q22.34-32.97 23.81-32.97L23.81-32.97L23.81-32.97Q26.41-32.97 28.50-32.25L28.50-32.25L28.50-32.25Q30.59-31.53 32.06-30.06L32.06-30.06L32.06-30.06Q33.53-28.59 34.33-26.30L34.33-26.30L34.33-26.30Q35.13-24 35.13-20.88L35.13-20.88L35.13-5.38L40-5.38L40 0L24.63 0L24.63-5.38L29.06-5.38L29.06-20.16L29.06-20.16Q29.06-23.88 27.17-25.80L27.17-25.80L27.17-25.80Q25.28-27.72 21.75-27.72L21.75-27.72L21.75-27.72Q19.75-27.72 17.69-26.77L17.69-26.77L17.69-26.77Q15.63-25.81 13.81-24.38L13.81-24.38L13.81-5.38L18.50-5.38L18.50 0L3.13 0L3.13-5.38L8-5.38L8-43.25L3.56-43.25ZM54.81-42.81L54.81-32.38L62.41-32.38L62.41-27.66L54.75-27.66L54.66-8.97L54.66-8.97Q54.66-7.06 55.09-5.88L55.09-5.88L55.09-5.88Q55.53-4.69 56.50-4.23L56.50-4.23L56.50-4.23Q57.47-3.78 58.69-3.78L58.69-3.78L58.69-3.78Q60-3.78 61-4.02L61-4.02L61-4.02Q62-4.25 63.19-4.81L63.19-4.81L64.53-0.91L64.53-0.91Q63.03-0.13 61.38 0.33L61.38 0.33L61.38 0.33Q59.72 0.78 57.47 0.78L57.47 0.78L57.47 0.78Q55.34 0.78 53.77 0.27L53.77 0.27L53.77 0.27Q52.19-0.25 51.11-1.47L51.11-1.47L51.11-1.47Q50.03-2.69 49.50-4.73L49.50-4.73L49.50-4.73Q48.97-6.78 48.97-9.84L48.97-9.84L49.06-27.66L43.91-27.66L43.91-32.38L49.13-32.38L49.13-40.13L54.81-42.81ZM78.63-42.81L78.63-32.38L86.22-32.38L86.22-27.66L78.56-27.66L78.47-8.97L78.47-8.97Q78.47-7.06 78.91-5.88L78.91-5.88L78.91-5.88Q79.34-4.69 80.31-4.23L80.31-4.23L80.31-4.23Q81.28-3.78 82.50-3.78L82.50-3.78L82.50-3.78Q83.81-3.78 84.81-4.02L84.81-4.02L84.81-4.02Q85.81-4.25 87-4.81L87-4.81L88.34-0.91L88.34-0.91Q86.84-0.13 85.19 0.33L85.19 0.33L85.19 0.33Q83.53 0.78 81.28 0.78L81.28 0.78L81.28 0.78Q79.16 0.78 77.58 0.27L77.58 0.27L77.58 0.27Q76-0.25 74.92-1.47L74.92-1.47L74.92-1.47Q73.84-2.69 73.31-4.73L73.31-4.73L73.31-4.73Q72.78-6.78 72.78-9.84L72.78-9.84L72.88-27.66L67.72-27.66L67.72-32.38L72.94-32.38L72.94-40.13L78.63-42.81ZM91.78-27L91.78-32.38L102.09-32.38L102.09-29.69L102.09-29.69Q104.16-31.28 106.59-32.22L106.59-32.22L106.59-32.22Q109.03-33.16 111.63-33.16L111.63-33.16L111.63-33.16Q114.81-33.16 117.47-31.97L117.47-31.97L117.47-31.97Q120.13-30.78 122.05-28.63L122.05-28.63L122.05-28.63Q123.97-26.47 125.03-23.45L125.03-23.45L125.03-23.45Q126.09-20.44 126.09-16.78L126.09-16.78L126.09-16.78Q126.09-12.88 124.91-9.66L124.91-9.66L124.91-9.66Q123.72-6.44 121.61-4.14L121.61-4.14L121.61-4.14Q119.50-1.84 116.59-0.56L116.59-0.56L116.59-0.56Q113.69 0.72 110.22 0.72L110.22 0.72L110.22 0.72Q107.75 0.72 105.83 0.20L105.83 0.20L105.83 0.20Q103.91-0.31 102.16-1.13L102.16-1.13L102.16 9.34L107.22 9.34L107.22 14.72L91.84 14.72L91.84 9.34L96.28 9.34L96.28-27L91.78-27ZM110.09-28.03L110.09-28.03L110.09-28.03Q107.84-28.03 105.77-27.13L105.77-27.13L105.77-27.13Q103.69-26.22 102.16-24.63L102.16-24.63L102.16-7.09L102.16-7.09Q103.19-6.03 105.11-5.19L105.11-5.19L105.11-5.19Q107.03-4.34 109.91-4.34L109.91-4.34L109.91-4.34Q111.91-4.34 113.75-5.13L113.75-5.13L113.75-5.13Q115.59-5.91 117-7.45L117-7.45L117-7.45Q118.41-9 119.25-11.28L119.25-11.28L119.25-11.28Q120.09-13.56 120.09-16.56L120.09-16.56L120.09-16.56Q120.09-19.31 119.30-21.44L119.30-21.44L119.30-21.44Q118.50-23.56 117.14-25.03L117.14-25.03L117.14-25.03Q115.78-26.50 113.97-27.27L113.97-27.27L113.97-27.27Q112.16-28.03 110.09-28.03ZM131.72 0L131.72-4.59L148.38-24.72L148.38-24.72Q149.22-25.72 150.14-26.88L150.14-26.88L150.14-26.88Q151.06-28.03 151.86-29.31L151.86-29.31L151.86-29.31Q152.66-30.59 153.17-31.98L153.17-31.98L153.17-31.98Q153.69-33.38 153.69-34.88L153.69-34.88L153.69-34.88Q153.69-36.44 153.06-37.81L153.06-37.81L153.06-37.81Q152.44-39.19 151.34-40.22L151.34-40.22L151.34-40.22Q150.25-41.25 148.73-41.84L148.73-41.84L148.73-41.84Q147.22-42.44 145.41-42.44L145.41-42.44L145.41-42.44Q143.78-42.44 142.33-41.92L142.33-41.92L142.33-41.92Q140.88-41.41 139.78-40.41L139.78-40.41L139.78-40.41Q138.69-39.41 138.02-37.92L138.02-37.92L138.02-37.92Q137.34-36.44 137.28-34.50L137.28-34.50L131.66-34.50L131.66-34.50Q131.69-37.47 132.81-39.98L132.81-39.98L132.81-39.98Q133.94-42.50 135.83-44.33L135.83-44.33L135.83-44.33Q137.72-46.16 140.22-47.17L140.22-47.17L140.22-47.17Q142.72-48.19 145.47-48.19L145.47-48.19L145.47-48.19Q148.66-48.19 151.25-47.17L151.25-47.17L151.25-47.17Q153.84-46.16 155.69-44.38L155.69-44.38L155.69-44.38Q157.53-42.59 158.55-40.16L158.55-40.16L158.55-40.16Q159.56-37.72 159.56-34.88L159.56-34.88L159.56-34.88Q159.56-33.75 159.30-32.48L159.30-32.48L159.30-32.48Q159.03-31.22 158.39-29.77L158.39-29.77L158.39-29.77Q157.75-28.31 156.70-26.66L156.70-26.66L156.70-26.66Q155.66-25 154.06-23.09L154.06-23.09L139.28-5.50L159.50-5.50L159.50 0L131.72 0ZM183.50-15.50L166.28-15.50L166.28-20.88L183.50-20.88L183.50-15.50ZM218.75-23.75L212.88-23.75L212.88-23.75Q211.56-26.09 209.55-27.19L209.55-27.19L209.55-27.19Q207.53-28.28 204.88-28.28L204.88-28.28L204.88-28.28Q202.84-28.28 201.06-27.44L201.06-27.44L201.06-27.44Q199.28-26.59 197.95-25.03L197.95-25.03L197.95-25.03Q196.63-23.47 195.86-21.23L195.86-21.23L195.86-21.23Q195.09-19 195.09-16.25L195.09-16.25L195.09-16.25Q195.09-13.53 195.86-11.34L195.86-11.34L195.86-11.34Q196.63-9.16 197.97-7.61L197.97-7.61L197.97-7.61Q199.31-6.06 201.08-5.23L201.08-5.23L201.08-5.23Q202.84-4.41 204.88-4.41L204.88-4.41L204.88-4.41Q207.88-4.41 210.09-5.86L210.09-5.86L210.09-5.86Q212.31-7.31 213.63-10.13L213.63-10.13L218.44-7.75L218.44-7.75Q217.50-5.75 216.13-4.16L216.13-4.16L216.13-4.16Q214.75-2.56 213.02-1.44L213.02-1.44L213.02-1.44Q211.28-0.31 209.20 0.30L209.20 0.30L209.20 0.30Q207.13 0.91 204.81 0.91L204.81 0.91L204.81 0.91Q201.44 0.91 198.58-0.36L198.58-0.36L198.58-0.36Q195.72-1.63 193.64-3.91L193.64-3.91L193.64-3.91Q191.56-6.19 190.41-9.34L190.41-9.34L190.41-9.34Q189.25-12.50 189.25-16.25L189.25-16.25L189.25-16.25Q189.25-20 190.47-23.16L190.47-23.16L190.47-23.16Q191.69-26.31 193.81-28.58L193.81-28.58L193.81-28.58Q195.94-30.84 198.78-32.13L198.78-32.13L198.78-32.13Q201.63-33.41 204.88-33.41L204.88-33.41L204.88-33.41Q207.94-33.41 210.67-32.34L210.67-32.34L210.67-32.34Q213.41-31.28 215.47-29.13L215.47-29.13L218.75-29.13L218.75-23.75ZM224.19-43.25L224.19-48.63L234.69-48.63L234.69-5.38L239.56-5.38L239.56 0L224.19 0L224.19-5.38L228.88-5.38L228.88-43.25L224.19-43.25ZM245-27L245-32.38L255.56-32.38L255.56-5.38L260.44-5.38L260.44 0L245.06 0L245.06-5.38L249.69-5.38L249.69-27L245-27ZM248.59-43.84L248.59-43.84L248.59-43.84Q248.59-44.66 248.92-45.39L248.92-45.39L248.92-45.39Q249.25-46.13 249.80-46.67L249.80-46.67L249.80-46.67Q250.34-47.22 251.09-47.55L251.09-47.55L251.09-47.55Q251.84-47.88 252.69-47.88L252.69-47.88L252.69-47.88Q253.50-47.88 254.23-47.55L254.23-47.55L254.23-47.55Q254.97-47.22 255.52-46.67L255.52-46.67L255.52-46.67Q256.06-46.13 256.39-45.39L256.39-45.39L256.39-45.39Q256.72-44.66 256.72-43.84L256.72-43.84L256.72-43.84Q256.72-43 256.39-42.25L256.39-42.25L256.39-42.25Q256.06-41.50 255.52-40.92L255.52-40.92L255.52-40.92Q254.97-40.34 254.23-40.02L254.23-40.02L254.23-40.02Q253.50-39.69 252.69-39.69L252.69-39.69L252.69-39.69Q251.84-39.69 251.09-40.02L251.09-40.02L251.09-40.02Q250.34-40.34 249.80-40.92L249.80-40.92L249.80-40.92Q249.25-41.50 248.92-42.25L248.92-42.25L248.92-42.25Q248.59-43 248.59-43.84ZM294.59-15.44L271.28-15.44L271.28-15.44Q271.28-14.06 271.48-12.92L271.48-12.92L271.48-12.92Q271.69-11.78 272.06-10.75L272.06-10.75L272.06-10.75Q273.22-7.63 275.77-6.05L275.77-6.05L275.77-6.05Q278.31-4.47 281.53-4.47L281.53-4.47L281.53-4.47Q284.06-4.47 286.45-5.17L286.45-5.17L286.45-5.17Q288.84-5.88 291.47-7.38L291.47-7.38L293.81-3.41L293.81-3.41Q290.63-1.22 287.41-0.16L287.41-0.16L287.41-0.16Q284.19 0.91 280.72 0.91L280.72 0.91L280.72 0.91Q277.44 0.91 274.64-0.19L274.64-0.19L274.64-0.19Q271.84-1.28 269.83-3.44L269.83-3.44L269.83-3.44Q267.81-5.59 266.67-8.81L266.67-8.81L266.67-8.81Q265.53-12.03 265.53-16.31L265.53-16.31L265.53-16.31Q265.53-19.78 266.50-22.86L266.50-22.86L266.50-22.86Q267.47-25.94 269.39-28.23L269.39-28.23L269.39-28.23Q271.31-30.53 274.16-31.88L274.16-31.88L274.16-31.88Q277-33.22 280.78-33.22L280.78-33.22L280.78-33.22Q284.44-33.22 286.89-32.11L286.89-32.11L286.89-32.11Q289.34-31 290.89-29.17L290.89-29.17L290.89-29.17Q292.44-27.34 293.23-25L293.23-25L293.23-25Q294.03-22.66 294.34-20.22L294.34-20.22L294.34-20.22Q294.50-19.03 294.55-17.81L294.55-17.81L294.55-17.81Q294.59-16.59 294.59-15.44L294.59-15.44ZM280.38-28.34L280.38-28.34L280.38-28.34Q278.34-28.34 276.83-27.77L276.83-27.77L276.83-27.77Q275.31-27.19 274.25-26.11L274.25-26.11L274.25-26.11Q273.19-25.03 272.55-23.47L272.55-23.47L272.55-23.47Q271.91-21.91 271.59-19.97L271.59-19.97L288.38-19.97L288.38-19.97Q288.25-21.78 287.80-23.31L287.80-23.31L287.80-23.31Q287.34-24.84 286.41-25.97L286.41-25.97L286.41-25.97Q285.47-27.09 284-27.72L284-27.72L284-27.72Q282.53-28.34 280.38-28.34ZM323.81 0L323.81-5.38L328.38-5.38L328.38-20.16L328.38-20.16Q328.38-23.88 326.48-25.80L326.48-25.80L326.48-25.80Q324.59-27.72 321.06-27.72L321.06-27.72L321.06-27.72Q319.03-27.72 316.97-26.75L316.97-26.75L316.97-26.75Q314.91-25.78 313.06-24.34L313.06-24.34L313.06-5.38L317.63-5.38L317.63 0L302.50 0L302.50-5.38L307-5.38L307-27L302.50-27L302.50-32.38L312.81-32.38L312.81-28.56L312.88-28.56L312.88-28.56Q313.91-29.47 315.08-30.28L315.08-30.28L315.08-30.28Q316.25-31.09 317.53-31.69L317.53-31.69L317.53-31.69Q318.81-32.28 320.20-32.63L320.20-32.63L320.20-32.63Q321.59-32.97 323.13-32.97L323.13-32.97L323.13-32.97Q325.72-32.97 327.81-32.25L327.81-32.25L327.81-32.25Q329.91-31.53 331.38-30.06L331.38-30.06L331.38-30.06Q332.84-28.59 333.64-26.30L333.64-26.30L333.64-26.30Q334.44-24 334.44-20.88L334.44-20.88L334.44-5.38L338.94-5.38L338.94 0L323.81 0ZM354.56-42.81L354.56-32.38L362.16-32.38L362.16-27.66L354.50-27.66L354.41-8.97L354.41-8.97Q354.41-7.06 354.84-5.88L354.84-5.88L354.84-5.88Q355.28-4.69 356.25-4.23L356.25-4.23L356.25-4.23Q357.22-3.78 358.44-3.78L358.44-3.78L358.44-3.78Q359.75-3.78 360.75-4.02L360.75-4.02L360.75-4.02Q361.75-4.25 362.94-4.81L362.94-4.81L364.28-0.91L364.28-0.91Q362.78-0.13 361.13 0.33L361.13 0.33L361.13 0.33Q359.47 0.78 357.22 0.78L357.22 0.78L357.22 0.78Q355.09 0.78 353.52 0.27L353.52 0.27L353.52 0.27Q351.94-0.25 350.86-1.47L350.86-1.47L350.86-1.47Q349.78-2.69 349.25-4.73L349.25-4.73L349.25-4.73Q348.72-6.78 348.72-9.84L348.72-9.84L348.81-27.66L343.66-27.66L343.66-32.38L348.88-32.38L348.88-40.13L354.56-42.81Z" fill="url(#editing-outline-gradient)"></path></g></g><style>text {
  font-size: 64px;
  font-family: Arial Black;
  dominant-baseline: central;
  text-anchor: middle;
}</style></svg>