<svg width="914.1150634765625px" height="208.402490234375px" xmlns="http://www.w3.org/2000/svg" viewBox="-207.05753173828123 -29.201245117187497 914.1150634765625 208.402490234375" style="background: rgba(0, 0, 0, 0);" preserveAspectRatio="xMidYMid"><defs><linearGradient id="editing-outline-gradient" x1="-0.41354545764260087" x2="1.4135454576426008" y1="0.09326335692419985" y2="0.9067366430758002"><stop offset="0" stop-color="#ee4208"></stop><stop offset="1" stop-color="#4139ff"></stop></linearGradient><filter id="editing-outline" x="-100%" y="-100%" width="300%" height="300%"><feMorphology in="SourceGraphic" operator="dilate" radius="4" result="outline"></feMorphology><feComposite operator="out" in="outline" in2="SourceAlpha"></feComposite></filter></defs><g filter="url(#editing-outline)"><g transform="translate(-80.0950059890747, 131.91000366210938)"><path d="M6.40-77.71L6.40-87.37L24.82-87.37L24.82-51.77L25.16-51.77L25.16-51.77Q26.73-53.34 28.78-54.72L28.78-54.72L28.78-54.72Q30.83-56.10 33.07-57.11L33.07-57.11L33.07-57.11Q35.32-58.12 37.73-58.68L37.73-58.68L37.73-58.68Q40.15-59.24 42.79-59.24L42.79-59.24L42.79-59.24Q47.45-59.24 51.21-57.95L51.21-57.95L51.21-57.95Q54.97-56.66 57.61-54.02L57.61-54.02L57.61-54.02Q60.25-51.38 61.68-47.25L61.68-47.25L61.68-47.25Q63.12-43.13 63.12-37.51L63.12-37.51L63.12-9.66L71.88-9.66L71.88 0L44.25 0L44.25-9.66L52.22-9.66L52.22-36.22L52.22-36.22Q52.22-42.90 48.82-46.35L48.82-46.35L48.82-46.35Q45.43-49.81 39.08-49.81L39.08-49.81L39.08-49.81Q35.49-49.81 31.78-48.09L31.78-48.09L31.78-48.09Q28.08-46.38 24.82-43.80L24.82-43.80L24.82-9.66L33.24-9.66L33.24 0L5.62 0L5.62-9.66L14.38-9.66L14.38-77.71L6.40-77.71ZM98.49-76.93L98.49-58.17L112.14-58.17L112.14-49.69L98.38-49.69L98.21-16.12L98.21-16.12Q98.21-12.69 99.00-10.56L99.00-10.56L99.00-10.56Q99.78-8.42 101.52-7.61L101.52-7.61L101.52-7.61Q103.26-6.79 105.45-6.79L105.45-6.79L105.45-6.79Q107.81-6.79 109.61-7.22L109.61-7.22L109.61-7.22Q111.41-7.64 113.54-8.65L113.54-8.65L115.95-1.63L115.95-1.63Q113.26-0.22 110.28 0.59L110.28 0.59L110.28 0.59Q107.31 1.40 103.26 1.40L103.26 1.40L103.26 1.40Q99.45 1.40 96.61 0.48L96.61 0.48L96.61 0.48Q93.77-0.45 91.84-2.64L91.84-2.64L91.84-2.64Q89.90-4.83 88.95-8.51L88.95-8.51L88.95-8.51Q87.99-12.19 87.99-17.69L87.99-17.69L88.16-49.69L78.89-49.69L78.89-58.17L88.27-58.17L88.27-72.10L98.49-76.93ZM141.28-76.93L141.28-58.17L154.92-58.17L154.92-49.69L141.17-49.69L141.00-16.12L141.00-16.12Q141.00-12.69 141.78-10.56L141.78-10.56L141.78-10.56Q142.57-8.42 144.31-7.61L144.31-7.61L144.31-7.61Q146.05-6.79 148.24-6.79L148.24-6.79L148.24-6.79Q150.60-6.79 152.40-7.22L152.40-7.22L152.40-7.22Q154.19-7.64 156.33-8.65L156.33-8.65L158.74-1.63L158.74-1.63Q156.05-0.22 153.07 0.59L153.07 0.59L153.07 0.59Q150.10 1.40 146.05 1.40L146.05 1.40L146.05 1.40Q142.23 1.40 139.40 0.48L139.40 0.48L139.40 0.48Q136.56-0.45 134.63-2.64L134.63-2.64L134.63-2.64Q132.69-4.83 131.73-8.51L131.73-8.51L131.73-8.51Q130.78-12.19 130.78-17.69L130.78-17.69L130.95-49.69L121.68-49.69L121.68-58.17L131.06-58.17L131.06-72.10L141.28-76.93ZM164.92-48.52L164.92-58.17L183.45-58.17L183.45-53.34L183.45-53.34Q187.16-56.21 191.54-57.89L191.54-57.89L191.54-57.89Q195.92-59.58 200.58-59.58L200.58-59.58L200.58-59.58Q206.30-59.58 211.08-57.44L211.08-57.44L211.08-57.44Q215.85-55.31 219.30-51.44L219.30-51.44L219.30-51.44Q222.76-47.56 224.67-42.14L224.67-42.14L224.67-42.14Q226.57-36.72 226.57-30.15L226.57-30.15L226.57-30.15Q226.57-23.13 224.44-17.35L224.44-17.35L224.44-17.35Q222.31-11.57 218.52-7.44L218.52-7.44L218.52-7.44Q214.73-3.31 209.50-1.01L209.50-1.01L209.50-1.01Q204.28 1.29 198.05 1.29L198.05 1.29L198.05 1.29Q193.61 1.29 190.16 0.36L190.16 0.36L190.16 0.36Q186.71-0.56 183.56-2.02L183.56-2.02L183.56 16.79L192.66 16.79L192.66 26.45L165.03 26.45L165.03 16.79L173.01 16.79L173.01-48.52L164.92-48.52ZM197.82-50.37L197.82-50.37L197.82-50.37Q193.78-50.37 190.05-48.74L190.05-48.74L190.05-48.74Q186.31-47.11 183.56-44.25L183.56-44.25L183.56-12.75L183.56-12.75Q185.42-10.84 188.87-9.32L188.87-9.32L188.87-9.32Q192.32-7.81 197.49-7.81L197.49-7.81L197.49-7.81Q201.08-7.81 204.39-9.21L204.39-9.21L204.39-9.21Q207.71-10.61 210.23-13.39L210.23-13.39L210.23-13.39Q212.76-16.17 214.28-20.27L214.28-20.27L214.28-20.27Q215.79-24.37 215.79-29.76L215.79-29.76L215.79-29.76Q215.79-34.70 214.36-38.52L214.36-38.52L214.36-38.52Q212.93-42.34 210.49-44.98L210.49-44.98L210.49-44.98Q208.04-47.62 204.79-48.99L204.79-48.99L204.79-48.99Q201.53-50.37 197.82-50.37ZM236.68 0L236.68-8.25L266.61-44.42L266.61-44.42Q268.13-46.21 269.78-48.29L269.78-48.29L269.78-48.29Q271.44-50.37 272.87-52.67L272.87-52.67L272.87-52.67Q274.30-54.97 275.23-57.47L275.23-57.47L275.23-57.47Q276.16-59.97 276.16-62.67L276.16-62.67L276.16-62.67Q276.16-65.47 275.03-67.94L275.03-67.94L275.03-67.94Q273.91-70.42 271.95-72.27L271.95-72.27L271.95-72.27Q269.98-74.12 267.26-75.19L267.26-75.19L267.26-75.19Q264.53-76.25 261.28-76.25L261.28-76.25L261.28-76.25Q258.36-76.25 255.75-75.33L255.75-75.33L255.75-75.33Q253.13-74.40 251.17-72.60L251.17-72.60L251.17-72.60Q249.20-70.81 248.00-68.14L248.00-68.14L248.00-68.14Q246.79-65.47 246.68-61.99L246.68-61.99L236.57-61.99L236.57-61.99Q236.63-67.33 238.65-71.85L238.65-71.85L238.65-71.85Q240.67-76.37 244.07-79.65L244.07-79.65L244.07-79.65Q247.46-82.94 251.96-84.76L251.96-84.76L251.96-84.76Q256.45-86.59 261.39-86.59L261.39-86.59L261.39-86.59Q267.12-86.59 271.78-84.76L271.78-84.76L271.78-84.76Q276.44-82.94 279.75-79.74L279.75-79.74L279.75-79.74Q283.06-76.54 284.89-72.16L284.89-72.16L284.89-72.16Q286.71-67.78 286.71-62.67L286.71-62.67L286.71-62.67Q286.71-60.64 286.24-58.37L286.24-58.37L286.24-58.37Q285.76-56.10 284.61-53.49L284.61-53.49L284.61-53.49Q283.46-50.87 281.58-47.90L281.58-47.90L281.58-47.90Q279.69-44.92 276.83-41.50L276.83-41.50L250.27-9.88L286.60-9.88L286.60 0L236.68 0ZM329.73-27.85L298.79-27.85L298.79-37.51L329.73-37.51L329.73-27.85ZM393.07-42.68L382.51-42.68L382.51-42.68Q380.15-46.89 376.53-48.85L376.53-48.85L376.53-48.85Q372.91-50.82 368.13-50.82L368.13-50.82L368.13-50.82Q364.48-50.82 361.28-49.30L361.28-49.30L361.28-49.30Q358.08-47.79 355.70-44.98L355.70-44.98L355.70-44.98Q353.31-42.17 351.93-38.16L351.93-38.16L351.93-38.16Q350.56-34.14 350.56-29.20L350.56-29.20L350.56-29.20Q350.56-24.31 351.93-20.38L351.93-20.38L351.93-20.38Q353.31-16.45 355.73-13.67L355.73-13.67L355.73-13.67Q358.14-10.89 361.31-9.41L361.31-9.41L361.31-9.41Q364.48-7.92 368.13-7.92L368.13-7.92L368.13-7.92Q373.53-7.92 377.51-10.53L377.51-10.53L377.51-10.53Q381.50-13.14 383.86-18.19L383.86-18.19L392.50-13.93L392.50-13.93Q390.82-10.33 388.35-7.47L388.35-7.47L388.35-7.47Q385.88-4.60 382.76-2.58L382.76-2.58L382.76-2.58Q379.65-0.56 375.91 0.53L375.91 0.53L375.91 0.53Q372.18 1.63 368.02 1.63L368.02 1.63L368.02 1.63Q361.96 1.63 356.82-0.65L356.82-0.65L356.82-0.65Q351.68-2.92 347.95-7.02L347.95-7.02L347.95-7.02Q344.21-11.12 342.14-16.79L342.14-16.79L342.14-16.79Q340.06-22.46 340.06-29.20L340.06-29.20L340.06-29.20Q340.06-35.94 342.25-41.61L342.25-41.61L342.25-41.61Q344.44-47.28 348.26-51.35L348.26-51.35L348.26-51.35Q352.08-55.42 357.19-57.72L357.19-57.72L357.19-57.72Q362.29-60.03 368.13-60.03L368.13-60.03L368.13-60.03Q373.64-60.03 378.55-58.12L378.55-58.12L378.55-58.12Q383.46-56.21 387.17-52.33L387.17-52.33L393.07-52.33L393.07-42.68ZM402.84-77.71L402.84-87.37L421.70-87.37L421.70-9.66L430.46-9.66L430.46 0L402.84 0L402.84-9.66L411.26-9.66L411.26-77.71L402.84-77.71ZM440.23-48.52L440.23-58.17L459.21-58.17L459.21-9.66L467.97-9.66L467.97 0L440.35 0L440.35-9.66L448.66-9.66L448.66-48.52L440.23-48.52ZM446.69-78.78L446.69-78.78L446.69-78.78Q446.69-80.24 447.28-81.56L447.28-81.56L447.28-81.56Q447.87-82.88 448.85-83.86L448.85-83.86L448.85-83.86Q449.84-84.85 451.18-85.44L451.18-85.44L451.18-85.44Q452.53-86.03 454.05-86.03L454.05-86.03L454.05-86.03Q455.51-86.03 456.83-85.44L456.83-85.44L456.83-85.44Q458.15-84.85 459.13-83.86L459.13-83.86L459.13-83.86Q460.11-82.88 460.70-81.56L460.70-81.56L460.70-81.56Q461.29-80.24 461.29-78.78L461.29-78.78L461.29-78.78Q461.29-77.27 460.70-75.92L460.70-75.92L460.70-75.92Q460.11-74.57 459.13-73.53L459.13-73.53L459.13-73.53Q458.15-72.49 456.83-71.90L456.83-71.90L456.83-71.90Q455.51-71.31 454.05-71.31L454.05-71.31L454.05-71.31Q452.53-71.31 451.18-71.90L451.18-71.90L451.18-71.90Q449.84-72.49 448.85-73.53L448.85-73.53L448.85-73.53Q447.87-74.57 447.28-75.92L447.28-75.92L447.28-75.92Q446.69-77.27 446.69-78.78ZM529.35-27.74L487.46-27.74L487.46-27.74Q487.46-25.27 487.82-23.22L487.82-23.22L487.82-23.22Q488.19-21.17 488.86-19.32L488.86-19.32L488.86-19.32Q490.94-13.70 495.52-10.87L495.52-10.87L495.52-10.87Q500.09-8.03 505.88-8.03L505.88-8.03L505.88-8.03Q510.42-8.03 514.72-9.29L514.72-9.29L514.72-9.29Q519.02-10.56 523.73-13.25L523.73-13.25L527.94-6.12L527.94-6.12Q522.22-2.19 516.43-0.28L516.43-0.28L516.43-0.28Q510.65 1.63 504.42 1.63L504.42 1.63L504.42 1.63Q498.52 1.63 493.49-0.34L493.49-0.34L493.49-0.34Q488.47-2.30 484.85-6.18L484.85-6.18L484.85-6.18Q481.23-10.05 479.18-15.83L479.18-15.83L479.18-15.83Q477.13-21.62 477.13-29.31L477.13-29.31L477.13-29.31Q477.13-35.54 478.87-41.08L478.87-41.08L478.87-41.08Q480.61-46.61 484.06-50.73L484.06-50.73L484.06-50.73Q487.51-54.86 492.62-57.28L492.62-57.28L492.62-57.28Q497.73-59.69 504.53-59.69L504.53-59.69L504.53-59.69Q511.10-59.69 515.51-57.70L515.51-57.70L515.51-57.70Q519.91-55.70 522.69-52.42L522.69-52.42L522.69-52.42Q525.47-49.13 526.91-44.92L526.91-44.92L526.91-44.92Q528.34-40.71 528.90-36.33L528.90-36.33L528.90-36.33Q529.18-34.20 529.26-32.01L529.26-32.01L529.26-32.01Q529.35-29.82 529.35-27.74L529.35-27.74ZM503.80-50.93L503.80-50.93L503.80-50.93Q500.15-50.93 497.43-49.89L497.43-49.89L497.43-49.89Q494.70-48.85 492.79-46.92L492.79-46.92L492.79-46.92Q490.88-44.98 489.73-42.17L489.73-42.17L489.73-42.17Q488.58-39.36 488.02-35.88L488.02-35.88L518.17-35.88L518.17-35.88Q517.95-39.14 517.14-41.89L517.14-41.89L517.14-41.89Q516.32-44.64 514.64-46.66L514.64-46.66L514.64-46.66Q512.95-48.68 510.31-49.81L510.31-49.81L510.31-49.81Q507.67-50.93 503.80-50.93ZM581.85 0L581.85-9.66L590.05-9.66L590.05-36.22L590.05-36.22Q590.05-42.90 586.65-46.35L586.65-46.35L586.65-46.35Q583.25-49.81 576.91-49.81L576.91-49.81L576.91-49.81Q573.26-49.81 569.55-48.07L569.55-48.07L569.55-48.07Q565.85-46.33 562.53-43.74L562.53-43.74L562.53-9.66L570.73-9.66L570.73 0L543.55 0L543.55-9.66L551.64-9.66L551.64-48.52L543.55-48.52L543.55-58.17L562.08-58.17L562.08-51.32L562.20-51.32L562.20-51.32Q564.05-52.95 566.16-54.41L566.16-54.41L566.16-54.41Q568.26-55.87 570.56-56.94L570.56-56.94L570.56-56.94Q572.87-58.01 575.36-58.62L575.36-58.62L575.36-58.62Q577.86-59.24 580.62-59.24L580.62-59.24L580.62-59.24Q585.28-59.24 589.04-57.95L589.04-57.95L589.04-57.95Q592.80-56.66 595.44-54.02L595.44-54.02L595.44-54.02Q598.08-51.38 599.51-47.25L599.51-47.25L599.51-47.25Q600.94-43.13 600.94-37.51L600.94-37.51L600.94-9.66L609.03-9.66L609.03 0L581.85 0ZM637.10-76.93L637.10-58.17L650.75-58.17L650.75-49.69L636.99-49.69L636.82-16.12L636.82-16.12Q636.82-12.69 637.61-10.56L637.61-10.56L637.61-10.56Q638.40-8.42 640.14-7.61L640.14-7.61L640.14-7.61Q641.88-6.79 644.07-6.79L644.07-6.79L644.07-6.79Q646.43-6.79 648.22-7.22L648.22-7.22L648.22-7.22Q650.02-7.64 652.15-8.65L652.15-8.65L654.57-1.63L654.57-1.63Q651.87-0.22 648.90 0.59L648.90 0.59L648.90 0.59Q645.92 1.40 641.88 1.40L641.88 1.40L641.88 1.40Q638.06 1.40 635.22 0.48L635.22 0.48L635.22 0.48Q632.39-0.45 630.45-2.64L630.45-2.64L630.45-2.64Q628.51-4.83 627.56-8.51L627.56-8.51L627.56-8.51Q626.60-12.19 626.60-17.69L626.60-17.69L626.77-49.69L617.51-49.69L617.51-58.17L626.88-58.17L626.88-72.10L637.10-76.93Z" fill="url(#editing-outline-gradient)"></path></g></g><style>text {
  font-size: 64px;
  font-family: Arial Black;
  dominant-baseline: central;
  text-anchor: middle;
}</style></svg>