<svg width="790.3124755859375px" height="224px" xmlns="http://www.w3.org/2000/svg" viewBox="-145.15623779296874 -37 790.3124755859375 224" style="background: rgb(255, 255, 255);" preserveAspectRatio="xMidYMid"><defs><filter id="editing-vr"><feFlood flood-color="#ffffff" flood-opacity="0.7" result="c1"></feFlood><feFlood flood-color="#ffffff" flood-opacity="0.7" result="c3"></feFlood><feComposite operator="in" in="c1" in2="SourceAlpha" result="text-c1"></feComposite><feComposite operator="in" in="c3" in2="SourceAlpha" result="text-c3"></feComposite><feOffset in="text-c1" dx="1" dy="-1" result="text1"></feOffset><feOffset in="text-c3" dx="-1" dy="1" result="text3"></feOffset><feBlend in="SourceGraphic" in2="text1" mode="multiply" result="text4"></feBlend><feBlend in="text4" in2="text3" mode="multiply"></feBlend></filter></defs><g filter="url(#editing-vr)"><g transform="translate(-35.67500019073486, 142.5)"><path d="M54-27.75L54-27.75L54-27.75Q54.75-27 54.75-26.85L54.75-26.85L54.75-26.85Q54.75-26.55 53.92-25.05L53.92-25.05L53.92-25.05Q53.10-23.55 51.75-21.90L51.75-21.90L51.75-21.90Q50.40-20.25 48.82-18.97L48.82-18.97L48.82-18.97Q47.25-17.70 45.75-17.70L45.75-17.70L45.75-17.70Q42.60-17.70 40.65-18.97L40.65-18.97L40.65-18.97Q38.70-20.25 37.42-22.20L37.42-22.20L37.42-22.20Q36.15-24.15 35.48-26.47L35.48-26.47L35.48-26.47Q34.80-28.80 34.35-30.90L34.35-30.90L34.35-30.90Q34.05-31.95 33.75-31.95L33.75-31.95L33.75-31.95Q33.30-31.95 31.95-28.72L31.95-28.72L31.95-28.72Q30.60-25.50 29.02-21.68L29.02-21.68L29.02-21.68Q27.45-17.85 26.02-14.63L26.02-14.63L26.02-14.63Q24.60-11.40 24.15-11.40L24.15-11.40L24.15-11.40Q21.45-11.40 19.57-13.72L19.57-13.72L19.57-13.72Q17.70-16.05 16.57-19.13L16.57-19.13L16.57-19.13Q15.45-22.20 14.85-25.43L14.85-25.43L14.85-25.43Q14.25-28.65 14.10-30.45L14.10-30.45L14.10-30.45Q13.65-34.50 12.15-43.95L12.15-43.95L12.15-43.95Q10.65-53.40 9.60-66.90L9.60-66.90L9.60-66.90Q9.30-69.75 8.92-72.08L8.92-72.08L8.92-72.08Q8.55-74.40 8.10-77.25L8.10-77.25L8.10-77.25Q7.65-80.10 7.35-83.70L7.35-83.70L7.35-83.70Q7.05-87.30 7.05-92.55L7.05-92.55L7.05-92.55Q7.05-92.85 7.20-94.50L7.20-94.50L7.20-94.50Q7.35-96.15 7.65-98.10L7.65-98.10L7.65-98.10Q7.95-100.05 8.63-101.55L8.63-101.55L8.63-101.55Q9.30-103.05 10.20-103.05L10.20-103.05L10.20-103.05Q11.25-103.05 12.15-101.77L12.15-101.77L12.15-101.77Q13.05-100.50 13.72-98.85L13.72-98.85L13.72-98.85Q14.40-97.20 14.70-95.70L14.70-95.70L14.70-95.70Q15-94.20 15-93.60L15-93.60L15-93.60Q15-91.35 14.70-89.40L14.70-89.40L14.70-89.40Q14.40-87.45 14.40-85.80L14.40-85.80L14.40-85.80Q14.40-83.55 14.77-80.10L14.77-80.10L14.77-80.10Q15.15-76.65 15.75-73.05L15.75-73.05L15.75-73.05Q16.35-69.45 16.80-66.08L16.80-66.08L16.80-66.08Q17.25-62.70 17.55-60.60L17.55-60.60L17.55-60.60Q17.55-60.45 17.85-58.50L17.85-58.50L17.85-58.50Q18.15-56.55 18.52-53.63L18.52-53.63L18.52-53.63Q18.90-50.70 19.27-47.32L19.27-47.32L19.27-47.32Q19.65-43.95 20.10-40.73L20.10-40.73L20.10-40.73Q20.55-37.50 20.93-35.02L20.93-35.02L20.93-35.02Q21.30-32.55 21.45-31.50L21.45-31.50L21.45-31.50Q21.45-31.05 21.68-30.22L21.68-30.22L21.68-30.22Q21.90-29.40 22.13-28.35L22.13-28.35L22.13-28.35Q22.35-27.30 22.65-26.40L22.65-26.40L22.65-26.40Q22.95-25.50 23.40-25.05L23.40-25.05L23.40-25.05Q24.30-26.85 25.72-30.60L25.72-30.60L25.72-30.60Q27.15-34.35 28.72-38.25L28.72-38.25L28.72-38.25Q30.30-42.15 31.72-45.07L31.72-45.07L31.72-45.07Q33.15-48 34.20-48L34.20-48L34.20-48Q35.40-48 36.15-47.55L36.15-47.55L36.15-47.55Q36.90-47.10 38.10-46.80L38.10-46.80L38.10-46.80Q39.60-46.20 39.60-45.23L39.60-45.23L39.60-45.23Q39.60-44.25 39.90-42.90L39.90-42.90L39.90-42.90Q40.20-41.10 40.88-38.17L40.88-38.17L40.88-38.17Q41.55-35.25 42.45-32.48L42.45-32.48L42.45-32.48Q43.35-29.70 44.55-27.75L44.55-27.75L44.55-27.75Q45.75-25.80 46.95-25.80L46.95-25.80L46.95-25.80Q47.55-25.80 48.60-27.38L48.60-27.38L48.60-27.38Q49.65-28.95 51.45-29.10L51.45-29.10L51.45-29.10Q51.75-29.10 52.50-28.72L52.50-28.72L52.50-28.72Q53.25-28.35 54-27.75ZM103.35-67.80L103.35-67.80L103.35-67.80Q101.40-65.55 97.80-63.38L97.80-63.38L97.80-63.38Q94.20-61.20 90.60-59.40L90.60-59.40L90.60-59.40Q87-57.60 84.30-56.32L84.30-56.32L84.30-56.32Q81.60-55.05 81.60-54.60L81.60-54.60L81.60-54.60Q81.60-54.15 82.20-51.90L82.20-51.90L82.20-51.90Q82.80-49.65 83.63-46.57L83.63-46.57L83.63-46.57Q84.45-43.50 85.35-40.20L85.35-40.20L85.35-40.20Q86.25-36.90 86.85-34.35L86.85-34.35L86.85-34.35Q87.15-32.85 87.60-30.45L87.60-30.45L87.60-30.45Q88.05-28.05 88.42-25.65L88.42-25.65L88.42-25.65Q88.80-23.25 89.10-21.38L89.10-21.38L89.10-21.38Q89.40-19.50 89.40-19.35L89.40-19.35L89.40-19.35Q89.40-17.10 88.65-14.70L88.65-14.70L88.65-14.70Q87.90-12.30 86.25-12.30L86.25-12.30L86.25-12.30Q85.35-12.30 84.60-13.05L84.60-13.05L84.60-13.05Q83.85-13.80 83.25-14.77L83.25-14.77L83.25-14.77Q82.65-15.75 82.35-16.65L82.35-16.65L82.35-16.65Q82.05-17.55 82.05-18L82.05-18L82.05-18Q82.05-18.30 82.13-18.90L82.13-18.90L82.13-18.90Q82.20-19.50 82.20-20.25L82.20-20.25L82.20-20.25Q82.20-23.10 81.30-28.50L81.30-28.50L81.30-28.50Q81-30.15 80.10-33.60L80.10-33.60L80.10-33.60Q79.20-37.05 78.30-40.65L78.30-40.65L78.30-40.65Q77.25-44.85 75.90-49.80L75.90-49.80L75.90-49.80Q75.30-51.90 75.15-51.90L75.15-51.90L75.15-51.90Q74.10-51.90 71.63-50.63L71.63-50.63L71.63-50.63Q69.15-49.35 66-47.48L66-47.48L66-47.48Q62.85-45.60 59.40-43.42L59.40-43.42L59.40-43.42Q55.95-41.25 52.95-39.38L52.95-39.38L52.95-39.38Q49.95-37.50 47.77-36.23L47.77-36.23L47.77-36.23Q45.60-34.95 45.15-34.95L45.15-34.95L45.15-34.95Q43.20-34.95 42.00-36.30L42.00-36.30L42.00-36.30Q40.80-37.65 40.80-39.30L40.80-39.30L40.80-39.30Q40.80-40.20 43.27-41.92L43.27-41.92L43.27-41.92Q45.75-43.65 49.42-45.75L49.42-45.75L49.42-45.75Q53.10-47.85 57.37-50.10L57.37-50.10L57.37-50.10Q61.65-52.35 65.32-54.15L65.32-54.15L65.32-54.15Q69-55.95 71.47-57.15L71.47-57.15L71.47-57.15Q73.95-58.35 73.95-58.35L73.95-58.35L73.95-58.35Q72.60-65.25 71.70-70.65L71.70-70.65L71.70-70.65Q70.95-75.30 70.27-79.20L70.27-79.20L70.27-79.20Q69.60-83.10 69.60-83.40L69.60-83.40L69.60-83.40Q69.60-85.35 70.42-86.33L70.42-86.33L70.42-86.33Q71.25-87.30 72.30-87.30L72.30-87.30L72.30-87.30Q73.95-87.30 74.40-85.05L74.40-85.05L74.40-85.05Q76.05-76.95 77.47-70.65L77.47-70.65L77.47-70.65Q78.90-64.35 80.25-60.45L80.25-60.45L80.25-60.45Q81.60-60.75 84.90-62.17L84.90-62.17L84.90-62.17Q88.20-63.60 91.80-65.25L91.80-65.25L91.80-65.25Q95.40-66.90 98.32-68.17L98.32-68.17L98.32-68.17Q101.25-69.45 101.70-69.45L101.70-69.45L101.70-69.45Q102.60-69.45 102.82-68.85L102.82-68.85L102.82-68.85Q103.05-68.25 103.35-67.80ZM151.20-67.80L151.20-67.80L151.20-67.80Q149.25-65.55 145.65-63.38L145.65-63.38L145.65-63.38Q142.05-61.20 138.45-59.40L138.45-59.40L138.45-59.40Q134.85-57.60 132.15-56.32L132.15-56.32L132.15-56.32Q129.45-55.05 129.45-54.60L129.45-54.60L129.45-54.60Q129.45-54.15 130.05-51.90L130.05-51.90L130.05-51.90Q130.65-49.65 131.47-46.57L131.47-46.57L131.47-46.57Q132.30-43.50 133.20-40.20L133.20-40.20L133.20-40.20Q134.10-36.90 134.70-34.35L134.70-34.35L134.70-34.35Q135-32.85 135.45-30.45L135.45-30.45L135.45-30.45Q135.90-28.05 136.27-25.65L136.27-25.65L136.27-25.65Q136.65-23.25 136.95-21.38L136.95-21.38L136.95-21.38Q137.25-19.50 137.25-19.35L137.25-19.35L137.25-19.35Q137.25-17.10 136.50-14.70L136.50-14.70L136.50-14.70Q135.75-12.30 134.10-12.30L134.10-12.30L134.10-12.30Q133.20-12.30 132.45-13.05L132.45-13.05L132.45-13.05Q131.70-13.80 131.10-14.77L131.10-14.77L131.10-14.77Q130.50-15.75 130.20-16.65L130.20-16.65L130.20-16.65Q129.90-17.55 129.90-18L129.90-18L129.90-18Q129.90-18.30 129.97-18.90L129.97-18.90L129.97-18.90Q130.05-19.50 130.05-20.25L130.05-20.25L130.05-20.25Q130.05-23.10 129.15-28.50L129.15-28.50L129.15-28.50Q128.85-30.15 127.95-33.60L127.95-33.60L127.95-33.60Q127.05-37.05 126.15-40.65L126.15-40.65L126.15-40.65Q125.10-44.85 123.75-49.80L123.75-49.80L123.75-49.80Q123.15-51.90 123.00-51.90L123.00-51.90L123.00-51.90Q121.95-51.90 119.47-50.63L119.47-50.63L119.47-50.63Q117.00-49.35 113.85-47.48L113.85-47.48L113.85-47.48Q110.70-45.60 107.25-43.42L107.25-43.42L107.25-43.42Q103.80-41.25 100.80-39.38L100.80-39.38L100.80-39.38Q97.80-37.50 95.62-36.23L95.62-36.23L95.62-36.23Q93.45-34.95 93.00-34.95L93.00-34.95L93.00-34.95Q91.05-34.95 89.85-36.30L89.85-36.30L89.85-36.30Q88.65-37.65 88.65-39.30L88.65-39.30L88.65-39.30Q88.65-40.20 91.12-41.92L91.12-41.92L91.12-41.92Q93.60-43.65 97.27-45.75L97.27-45.75L97.27-45.75Q100.95-47.85 105.22-50.10L105.22-50.10L105.22-50.10Q109.50-52.35 113.17-54.15L113.17-54.15L113.17-54.15Q116.85-55.95 119.32-57.15L119.32-57.15L119.32-57.15Q121.80-58.35 121.80-58.35L121.80-58.35L121.80-58.35Q120.45-65.25 119.55-70.65L119.55-70.65L119.55-70.65Q118.80-75.30 118.12-79.20L118.12-79.20L118.12-79.20Q117.45-83.10 117.45-83.40L117.45-83.40L117.45-83.40Q117.45-85.35 118.27-86.33L118.27-86.33L118.27-86.33Q119.10-87.30 120.15-87.30L120.15-87.30L120.15-87.30Q121.80-87.30 122.25-85.05L122.25-85.05L122.25-85.05Q123.90-76.95 125.32-70.65L125.32-70.65L125.32-70.65Q126.75-64.35 128.10-60.45L128.10-60.45L128.10-60.45Q129.45-60.75 132.75-62.17L132.75-62.17L132.75-62.17Q136.05-63.60 139.65-65.25L139.65-65.25L139.65-65.25Q143.25-66.90 146.17-68.17L146.17-68.17L146.17-68.17Q149.10-69.45 149.55-69.45L149.55-69.45L149.55-69.45Q150.45-69.45 150.67-68.85L150.67-68.85L150.67-68.85Q150.90-68.25 151.20-67.80ZM207.45-43.35L207.45-43.35L207.45-43.35Q207.45-39.45 205.27-35.85L205.27-35.85L205.27-35.85Q203.10-32.25 199.95-29.17L199.95-29.17L199.95-29.17Q196.80-26.10 193.05-23.47L193.05-23.47L193.05-23.47Q189.30-20.85 186.15-18.90L186.15-18.90L186.15-18.90Q183.15-16.80 181.20-15.45L181.20-15.45L181.20-15.45Q179.25-14.10 179.25-13.35L179.25-13.35L179.25-13.35Q179.25-11.40 179.70-7.88L179.70-7.88L179.70-7.88Q180.15-4.35 180.82-0.22L180.82-0.22L180.82-0.22Q181.50 3.90 182.17 8.25L182.17 8.25L182.17 8.25Q182.85 12.60 183.15 16.20L183.15 16.20L183.15 16.20Q183.15 16.35 183.37 17.55L183.37 17.55L183.37 17.55Q183.60 18.75 183.97 20.25L183.97 20.25L183.97 20.25Q184.35 21.75 184.57 23.02L184.57 23.02L184.57 23.02Q184.80 24.30 184.80 24.60L184.80 24.60L184.80 24.60Q184.80 25.65 184.72 26.93L184.72 26.93L184.72 26.93Q184.65 28.20 184.27 29.32L184.27 29.32L184.27 29.32Q183.90 30.45 183.15 31.20L183.15 31.20L183.15 31.20Q182.40 31.95 181.20 31.95L181.20 31.95L181.20 31.95Q179.55 31.95 178.80 30.52L178.80 30.52L178.80 30.52Q178.05 29.10 178.05 27.75L178.05 27.75L178.05 27.75Q178.05 27.45 178.12 27.15L178.12 27.15L178.12 27.15Q178.20 26.85 178.20 26.40L178.20 26.40L178.20 26.40Q178.20 24.75 177.00 17.55L177.00 17.55L177.00 17.55Q175.80 10.35 174.30 0.38L174.30 0.38L174.30 0.38Q172.80-9.60 171.60-21.07L171.60-21.07L171.60-21.07Q170.40-32.55 170.40-42.75L170.40-42.75L170.40-42.75Q170.40-43.50 170.55-44.48L170.55-44.48L170.55-44.48Q170.70-45.45 170.70-46.20L170.70-46.20L170.70-46.20Q169.20-46.05 166.27-44.85L166.27-44.85L166.27-44.85Q163.35-43.65 160.50-41.92L160.50-41.92L160.50-41.92Q157.65-40.20 155.47-38.32L155.47-38.32L155.47-38.32Q153.30-36.45 153.30-34.95L153.30-34.95L152.25-34.95L152.25-34.95Q151.80-34.95 151.12-35.55L151.12-35.55L151.12-35.55Q150.45-36.15 149.92-36.90L149.92-36.90L149.92-36.90Q149.40-37.65 148.95-38.40L148.95-38.40L148.95-38.40Q148.50-39.15 148.50-39.45L148.50-39.45L148.50-39.45Q148.50-42.60 152.25-45.38L152.25-45.38L152.25-45.38Q156.00-48.15 161.62-50.32L161.62-50.32L161.62-50.32Q167.25-52.50 174.00-53.77L174.00-53.77L174.00-53.77Q180.75-55.05 186.75-55.05L186.75-55.05L186.75-55.05Q192.60-55.05 196.57-53.70L196.57-53.70L196.57-53.70Q200.55-52.35 202.95-50.48L202.95-50.48L202.95-50.48Q205.35-48.60 206.40-46.65L206.40-46.65L206.40-46.65Q207.45-44.70 207.45-43.35ZM200.10-43.80L200.10-43.80L200.10-43.80Q200.10-45.30 196.35-46.88L196.35-46.88L196.35-46.88Q192.60-48.45 187.50-48.45L187.50-48.45L187.50-48.45Q183.00-48.45 180.90-48.15L180.90-48.15L180.90-48.15Q178.80-47.85 178.05-47.55L178.05-47.55L178.05-47.55Q177.75-45.15 177.60-41.85L177.60-41.85L177.60-41.85Q177.45-38.55 177.45-35.10L177.45-35.10L177.45-35.10Q177.45-31.50 177.67-28.13L177.67-28.13L177.67-28.13Q177.90-24.75 178.20-22.50L178.20-22.50L178.20-22.50Q180.30-23.85 183.97-26.18L183.97-26.18L183.97-26.18Q187.65-28.50 191.25-31.42L191.25-31.42L191.25-31.42Q194.85-34.35 197.47-37.57L197.47-37.57L197.47-37.57Q200.10-40.80 200.10-43.80ZM256.50-10.20L256.50-10.20L256.50-10.20Q256.50-8.55 255.07-7.65L255.07-7.65L255.07-7.65Q253.65-6.75 252.75-6.75L252.75-6.75L252.75-6.75Q251.40-6.75 250.72-7.20L250.72-7.20L250.72-7.20Q250.05-7.65 249.22-8.25L249.22-8.25L249.22-8.25Q248.40-8.85 247.12-9.30L247.12-9.30L247.12-9.30Q245.85-9.75 243.45-9.75L243.45-9.75L243.45-9.75Q240.45-9.75 238.12-8.25L238.12-8.25L238.12-8.25Q235.80-6.75 233.77-5.02L233.77-5.02L233.77-5.02Q231.75-3.30 229.80-1.80L229.80-1.80L229.80-1.80Q227.85-0.30 225.75-0.30L225.75-0.30L225.75-0.30Q223.20-0.30 222.45-2.10L222.45-2.10L222.45-2.10Q221.70-3.90 221.70-6.75L221.70-6.75L221.70-6.75Q221.70-7.35 223.65-11.17L223.65-11.17L223.65-11.17Q225.60-15 228.22-19.65L228.22-19.65L228.22-19.65Q230.85-24.30 233.25-28.57L233.25-28.57L233.25-28.57Q235.65-32.85 236.55-34.50L236.55-34.50L236.55-34.50Q237.45-36.15 239.10-39.15L239.10-39.15L239.10-39.15Q240.75-42.15 242.47-45.23L242.47-45.23L242.47-45.23Q244.20-48.30 245.40-50.63L245.40-50.63L245.40-50.63Q246.60-52.95 246.60-53.40L246.60-53.40L246.60-53.40Q246.60-54.45 246.15-54.75L246.15-54.75L246.15-54.75Q245.70-55.05 245.25-55.05L245.25-55.05L245.25-55.05Q244.20-55.05 240.67-53.85L240.67-53.85L240.67-53.85Q237.15-52.65 233.17-51.30L233.17-51.30L233.17-51.30Q229.20-49.95 225.67-48.75L225.67-48.75L225.67-48.75Q222.15-47.55 221.25-47.55L221.25-47.55L221.25-47.55Q221.10-47.55 220.35-48.30L220.35-48.30L220.35-48.30Q220.05-48.75 219.82-49.20L219.82-49.20L219.82-49.20Q219.60-49.65 219.60-50.10L219.60-50.10L219.60-50.10Q219.60-50.70 223.12-52.65L223.12-52.65L223.12-52.65Q226.65-54.60 231.60-56.63L231.60-56.63L231.60-56.63Q236.55-58.65 241.72-60.22L241.72-60.22L241.72-60.22Q246.90-61.80 250.20-61.80L250.20-61.80L250.20-61.80Q252.15-61.80 253.65-60.60L253.65-60.60L253.65-60.60Q255.15-59.40 255.15-57.30L255.15-57.30L255.15-57.30Q255.15-55.05 253.50-51.15L253.50-51.15L253.50-51.15Q251.85-47.25 249.30-42.60L249.30-42.60L249.30-42.60Q246.75-37.95 243.82-33L243.82-33L243.82-33Q240.90-28.05 238.35-23.93L238.35-23.93L238.35-23.93Q235.80-19.80 234.00-16.88L234.00-16.88L234.00-16.88Q232.20-13.95 232.05-13.20L232.05-13.20L232.05-13.20Q233.10-13.80 234.75-14.32L234.75-14.32L234.75-14.32Q236.40-14.85 238.12-15.30L238.12-15.30L238.12-15.30Q239.85-15.75 241.42-16.05L241.42-16.05L241.42-16.05Q243.00-16.35 243.90-16.35L243.90-16.35L243.90-16.35Q245.10-16.35 247.20-16.05L247.20-16.05L247.20-16.05Q249.30-15.75 251.40-15.07L251.40-15.07L251.40-15.07Q253.50-14.40 255.00-13.20L255.00-13.20L255.00-13.20Q256.50-12 256.50-10.20ZM296.55-33.60L296.55-33.60L296.55-33.60Q296.55-32.10 294.07-30.67L294.07-30.67L294.07-30.67Q291.60-29.25 288.45-28.20L288.45-28.20L288.45-28.20Q285.30-27.15 282.45-26.47L282.45-26.47L282.45-26.47Q279.60-25.80 278.85-25.80L278.85-25.80L278.85-25.80Q276.15-25.80 275.17-26.10L275.17-26.10L275.17-26.10Q274.20-26.40 273.45-28.05L273.45-28.05L273.45-28.05Q273-28.65 272.55-29.47L272.55-29.47L272.55-29.47Q272.10-30.30 272.10-30.75L272.10-30.75L272.10-30.75Q272.10-31.35 272.32-31.50L272.32-31.50L272.32-31.50Q272.55-31.65 273.45-31.65L273.45-31.65L273.45-31.65Q275.10-31.65 278.32-32.40L278.32-32.40L278.32-32.40Q281.55-33.15 284.77-34.05L284.77-34.05L284.77-34.05Q288-34.95 290.70-35.70L290.70-35.70L290.70-35.70Q293.40-36.45 294-36.45L294-36.45L294-36.45Q294.75-36.45 295.65-35.32L295.65-35.32L295.65-35.32Q296.55-34.20 296.55-33.60ZM352.50-27.30L352.50-27.30L352.50-27.30Q352.50-25.80 352.05-24.22L352.05-24.22L352.05-24.22Q351.60-22.65 351.15-21.60L351.15-21.60L351.15-21.60Q350.85-21.15 348.37-18.52L348.37-18.52L348.37-18.52Q345.90-15.90 342.22-13.05L342.22-13.05L342.22-13.05Q338.55-10.20 333.97-7.88L333.97-7.88L333.97-7.88Q329.40-5.55 325.20-5.55L325.20-5.55L325.20-5.55Q322.65-5.55 320.02-6.45L320.02-6.45L320.02-6.45Q317.40-7.35 315.15-9.38L315.15-9.38L315.15-9.38Q312.90-11.40 311.47-14.40L311.47-14.40L311.47-14.40Q310.05-17.40 310.05-21.75L310.05-21.75L310.05-21.75Q310.05-28.95 312.45-34.80L312.45-34.80L312.45-34.80Q314.85-40.65 317.25-44.10L317.25-44.10L317.25-44.10Q318.30-45.75 320.02-47.48L320.02-47.48L320.02-47.48Q321.75-49.20 323.40-50.63L323.40-50.63L323.40-50.63Q325.05-52.05 326.47-52.95L326.47-52.95L326.47-52.95Q327.90-53.85 328.50-53.85L328.50-53.85L328.50-53.85Q329.85-53.85 330.97-53.10L330.97-53.10L330.97-53.10Q332.10-52.35 332.10-51.60L332.10-51.60L332.10-51.60Q332.10-50.40 331.42-49.57L331.42-49.57L331.42-49.57Q330.75-48.75 329.55-47.77L329.55-47.77L329.55-47.77Q328.35-46.80 326.70-45.23L326.70-45.23L326.70-45.23Q325.05-43.65 323.25-41.10L323.25-41.10L323.25-41.10Q319.65-36.15 317.92-30.97L317.92-30.97L317.92-30.97Q316.20-25.80 316.20-21.90L316.20-21.90L316.20-21.90Q316.20-18 319.12-15.67L319.12-15.67L319.12-15.67Q322.05-13.35 325.20-13.35L325.20-13.35L325.20-13.35Q330.90-13.35 335.32-15.90L335.32-15.90L335.32-15.90Q339.75-18.45 342.90-21.60L342.90-21.60L342.90-21.60Q346.05-24.75 348.00-27.30L348.00-27.30L348.00-27.30Q349.95-29.85 350.85-29.85L350.85-29.85L350.85-29.85Q352.50-29.85 352.50-27.30ZM384.45-4.35L384.45-4.35L384.45-4.35Q384.45-3.15 383.55-2.55L383.55-2.55L383.55-2.55Q382.65-1.95 381.45-1.95L381.45-1.95L381.45-1.95Q380.10-1.95 378.67-4.50L378.67-4.50L378.67-4.50Q377.25-7.05 375.90-10.95L375.90-10.95L375.90-10.95Q374.55-14.85 373.35-19.43L373.35-19.43L373.35-19.43Q372.15-24 371.25-27.97L371.25-27.97L371.25-27.97Q370.35-31.95 369.82-34.65L369.82-34.65L369.82-34.65Q369.30-37.35 369.30-37.65L369.30-37.65L369.30-37.65Q369.30-38.25 368.77-40.80L368.77-40.80L368.77-40.80Q368.25-43.35 367.42-48.75L367.42-48.75L367.42-48.75Q366.60-54.15 365.62-62.77L365.62-62.77L365.62-62.77Q364.65-71.40 363.60-84.15L363.60-84.15L363.60-84.15Q363.60-85.50 364.05-87.60L364.05-87.60L364.05-87.60Q364.50-89.70 366.15-89.70L366.15-89.70L366.15-89.70Q368.25-89.70 369.37-86.85L369.37-86.85L369.37-86.85Q370.50-84 371.17-79.80L371.17-79.80L371.17-79.80Q371.85-75.60 372.15-71.02L372.15-71.02L372.15-71.02Q372.45-66.45 372.90-63L372.90-63L372.90-63Q373.50-58.20 374.02-54.30L374.02-54.30L374.02-54.30Q374.55-50.40 375.07-46.57L375.07-46.57L375.07-46.57Q375.60-42.75 376.42-38.55L376.42-38.55L376.42-38.55Q377.25-34.35 378.45-29.25L378.45-29.25L384.45-4.35ZM405.00-69L405.00-69L405.00-69Q405.00-68.70 403.95-67.80L403.95-67.80L403.95-67.80Q402.90-66.90 401.47-65.92L401.47-65.92L401.47-65.92Q400.05-64.95 398.55-64.20L398.55-64.20L398.55-64.20Q397.05-63.45 396.15-63.45L396.15-63.45L396.15-63.45Q395.55-63.45 394.57-63.52L394.57-63.52L394.57-63.52Q393.60-63.60 392.62-64.05L392.62-64.05L392.62-64.05Q391.65-64.50 390.90-65.33L390.90-65.33L390.90-65.33Q390.15-66.15 390.15-67.50L390.15-67.50L390.15-67.50Q390.15-69.60 391.65-71.47L391.65-71.47L391.65-71.47Q393.15-73.35 395.55-73.35L395.55-73.35L395.55-73.35Q396.00-73.35 397.57-72.97L397.57-72.97L397.57-72.97Q399.15-72.60 400.80-72L400.80-72L400.80-72Q402.45-71.40 403.72-70.65L403.72-70.65L403.72-70.65Q405.00-69.90 405.00-69ZM409.95-12.90L409.95-12.90L409.95-12.90Q409.95-11.85 408.37-11.10L408.37-11.10L408.37-11.10Q406.80-10.35 406.05-10.35L406.05-10.35L406.05-10.35Q404.55-10.35 403.35-12.30L403.35-12.30L403.35-12.30Q402.15-14.25 401.25-16.80L401.25-16.80L401.25-16.80Q400.35-19.35 399.75-21.68L399.75-21.68L399.75-21.68Q399.15-24 398.85-24.90L398.85-24.90L398.85-24.90Q398.40-26.40 397.65-28.50L397.65-28.50L397.65-28.50Q396.90-30.60 396.22-32.55L396.22-32.55L396.22-32.55Q395.55-34.50 395.10-36L395.10-36L395.10-36Q394.65-37.50 394.65-37.65L394.65-37.65L394.65-37.65Q394.65-39.75 395.47-41.55L395.47-41.55L395.47-41.55Q396.30-43.35 397.50-43.35L397.50-43.35L397.50-43.35Q398.85-43.35 400.35-41.25L400.35-41.25L400.35-41.25Q401.85-39.15 403.27-35.92L403.27-35.92L403.27-35.92Q404.70-32.70 405.90-28.88L405.90-28.88L405.90-28.88Q407.10-25.05 408.00-21.68L408.00-21.68L408.00-21.68Q408.90-18.30 409.42-15.82L409.42-15.82L409.42-15.82Q409.95-13.35 409.95-12.90ZM461.10-15.75L461.10-15.75L461.10-15.75Q461.25-15.45 461.25-14.85L461.25-14.85L461.25-14.85Q461.25-13.95 459.90-12.15L459.90-12.15L459.90-12.15Q459.45-11.55 457.95-10.20L457.95-10.20L457.95-10.20Q456.45-8.85 453.90-7.50L453.90-7.50L453.90-7.50Q451.35-6.15 447.67-5.10L447.67-5.10L447.67-5.10Q444.00-4.05 439.05-4.05L439.05-4.05L439.05-4.05Q435.60-4.05 432.30-5.63L432.30-5.63L432.30-5.63Q429.00-7.20 426.45-10.28L426.45-10.28L426.45-10.28Q423.90-13.35 422.25-17.93L422.25-17.93L422.25-17.93Q420.60-22.50 420.60-28.65L420.60-28.65L420.60-28.65Q420.60-34.50 422.10-39.60L422.10-39.60L422.10-39.60Q423.60-44.70 425.92-48.60L425.92-48.60L425.92-48.60Q428.25-52.50 431.10-54.75L431.10-54.75L431.10-54.75Q433.95-57 436.65-57L436.65-57L436.65-57Q439.05-57 441.52-56.02L441.52-56.02L441.52-56.02Q444.00-55.05 446.02-53.55L446.02-53.55L446.02-53.55Q448.05-52.05 449.25-50.17L449.25-50.17L449.25-50.17Q450.45-48.30 450.45-46.35L450.45-46.35L450.45-46.35Q450.45-44.10 448.42-41.70L448.42-41.70L448.42-41.70Q446.40-39.30 443.55-37.27L443.55-37.27L443.55-37.27Q440.70-35.25 437.85-33.98L437.85-33.98L437.85-33.98Q435.00-32.70 433.35-32.70L433.35-32.70L433.35-32.70Q432.45-32.70 431.77-33.52L431.77-33.52L431.77-33.52Q431.10-34.35 431.10-35.55L431.10-35.55L431.10-35.55Q431.10-37.65 432.97-38.85L432.97-38.85L432.97-38.85Q434.85-40.05 437.10-41.02L437.10-41.02L437.10-41.02Q439.35-42 441.22-43.35L441.22-43.35L441.22-43.35Q443.10-44.70 443.10-47.10L443.10-47.10L443.10-47.10Q443.10-47.40 442.35-48.60L442.35-48.60L442.35-48.60Q441.60-49.80 438.30-49.80L438.30-49.80L438.30-49.80Q436.80-49.80 434.85-48.07L434.85-48.07L434.85-48.07Q432.90-46.35 431.10-43.42L431.10-43.42L431.10-43.42Q429.30-40.50 428.10-36.52L428.10-36.52L428.10-36.52Q426.90-32.55 426.90-27.90L426.90-27.90L426.90-27.90Q426.90-24 428.32-20.85L428.32-20.85L428.32-20.85Q429.75-17.70 432.00-15.52L432.00-15.52L432.00-15.52Q434.25-13.35 437.25-12.15L437.25-12.15L437.25-12.15Q440.25-10.95 443.40-10.95L443.40-10.95L443.40-10.95Q445.65-10.95 448.27-11.92L448.27-11.92L448.27-11.92Q450.90-12.90 453.22-14.03L453.22-14.03L453.22-14.03Q455.55-15.15 457.27-16.13L457.27-16.13L457.27-16.13Q459.00-17.10 459.45-17.10L459.45-17.10L459.45-17.10Q459.90-17.10 460.42-16.65L460.42-16.65L460.42-16.65Q460.95-16.20 461.10-15.75ZM516.75-18.45L516.75-18.45L516.75-18.45Q516.75-17.55 516.15-16.65L516.15-16.65L516.15-16.65Q515.55-15.75 514.72-15L514.72-15L514.72-15Q513.90-14.25 512.92-13.72L512.92-13.72L512.92-13.72Q511.95-13.20 511.20-13.20L511.20-13.20L511.20-13.20Q508.65-13.20 504.67-14.32L504.67-14.32L504.67-14.32Q500.70-15.45 498.30-17.85L498.30-17.85L498.30-17.85Q495.75-20.40 493.80-23.93L493.80-23.93L493.80-23.93Q491.85-27.45 489.45-34.35L489.45-34.35L489.45-34.35Q487.80-27.75 485.62-21.30L485.62-21.30L485.62-21.30Q483.45-14.85 478.65-9.45L478.65-9.45L478.65-9.45Q478.35-9.15 477.75-9.15L477.75-9.15L477.75-9.15Q476.70-9.15 475.50-10.20L475.50-10.20L475.50-10.20Q474.30-11.25 474.30-12.30L474.30-12.30L474.30-12.30Q474.30-13.35 474.07-17.18L474.07-17.18L474.07-17.18Q473.85-21 473.55-25.72L473.55-25.72L473.55-25.72Q473.25-30.45 473.02-35.32L473.02-35.32L473.02-35.32Q472.80-40.20 472.80-43.35L472.80-43.35L472.80-43.35Q472.80-44.85 472.95-47.32L472.95-47.32L472.95-47.32Q473.10-49.80 473.85-51.60L473.85-51.60L473.85-51.60Q474.00-51.90 474.97-52.80L474.97-52.80L474.97-52.80Q475.95-53.70 477.15-53.70L477.15-53.70L477.15-53.70Q478.20-53.70 478.35-52.35L478.35-52.35L478.35-52.35Q478.50-51 478.50-49.35L478.50-49.35L478.50-25.65L478.50-25.65Q478.50-24.90 478.72-23.55L478.72-23.55L478.72-23.55Q478.95-22.20 479.40-21.60L479.40-21.60L479.40-21.60Q481.05-25.20 482.47-30.07L482.47-30.07L482.47-30.07Q483.90-34.95 485.25-39.38L485.25-39.38L485.25-39.38Q486.60-43.80 487.95-46.88L487.95-46.88L487.95-46.88Q489.30-49.95 490.65-49.95L490.65-49.95L490.65-49.95Q492.15-49.95 493.05-49.35L493.05-49.35L493.05-49.35Q493.95-48.75 494.55-46.95L494.55-46.95L494.55-46.95Q495.30-42.60 495.75-39.23L495.75-39.23L495.75-39.23Q496.20-35.85 496.87-33.15L496.87-33.15L496.87-33.15Q497.55-30.45 498.82-28.13L498.82-28.13L498.82-28.13Q500.10-25.80 502.35-23.85L502.35-23.85L502.35-23.85Q504.45-21.90 507.07-21L507.07-21L507.07-21Q509.70-20.10 511.65-20.10L511.65-20.10L511.65-20.10Q512.55-20.10 513.60-20.47L513.60-20.47L513.60-20.47Q514.65-20.85 515.10-20.85L515.10-20.85L515.10-20.85Q515.70-20.85 516.22-19.80L516.22-19.80L516.22-19.80Q516.75-18.75 516.75-18.45ZM564.30-67.80L564.30-67.80L564.30-67.80Q562.35-65.55 558.75-63.38L558.75-63.38L558.75-63.38Q555.15-61.20 551.55-59.40L551.55-59.40L551.55-59.40Q547.95-57.60 545.25-56.32L545.25-56.32L545.25-56.32Q542.55-55.05 542.55-54.60L542.55-54.60L542.55-54.60Q542.55-54.15 543.15-51.90L543.15-51.90L543.15-51.90Q543.75-49.65 544.57-46.57L544.57-46.57L544.57-46.57Q545.40-43.50 546.30-40.20L546.30-40.20L546.30-40.20Q547.20-36.90 547.80-34.35L547.80-34.35L547.80-34.35Q548.10-32.85 548.55-30.45L548.55-30.45L548.55-30.45Q549-28.05 549.38-25.65L549.38-25.65L549.38-25.65Q549.75-23.25 550.05-21.38L550.05-21.38L550.05-21.38Q550.35-19.50 550.35-19.35L550.35-19.35L550.35-19.35Q550.35-17.10 549.60-14.70L549.60-14.70L549.60-14.70Q548.85-12.30 547.20-12.30L547.20-12.30L547.20-12.30Q546.30-12.30 545.55-13.05L545.55-13.05L545.55-13.05Q544.80-13.80 544.20-14.77L544.20-14.77L544.20-14.77Q543.60-15.75 543.30-16.65L543.30-16.65L543.30-16.65Q543-17.55 543-18L543-18L543-18Q543-18.30 543.07-18.90L543.07-18.90L543.07-18.90Q543.15-19.50 543.15-20.25L543.15-20.25L543.15-20.25Q543.15-23.10 542.25-28.50L542.25-28.50L542.25-28.50Q541.95-30.15 541.05-33.60L541.05-33.60L541.05-33.60Q540.15-37.05 539.25-40.65L539.25-40.65L539.25-40.65Q538.20-44.85 536.85-49.80L536.85-49.80L536.85-49.80Q536.25-51.90 536.10-51.90L536.10-51.90L536.10-51.90Q535.05-51.90 532.57-50.63L532.57-50.63L532.57-50.63Q530.10-49.35 526.95-47.48L526.95-47.48L526.95-47.48Q523.80-45.60 520.35-43.42L520.35-43.42L520.35-43.42Q516.90-41.25 513.90-39.38L513.90-39.38L513.90-39.38Q510.90-37.50 508.72-36.23L508.72-36.23L508.72-36.23Q506.55-34.95 506.10-34.95L506.10-34.95L506.10-34.95Q504.15-34.95 502.95-36.30L502.95-36.30L502.95-36.30Q501.75-37.65 501.75-39.30L501.75-39.30L501.75-39.30Q501.75-40.20 504.22-41.92L504.22-41.92L504.22-41.92Q506.70-43.65 510.37-45.75L510.37-45.75L510.37-45.75Q514.05-47.85 518.32-50.10L518.32-50.10L518.32-50.10Q522.60-52.35 526.27-54.15L526.27-54.15L526.27-54.15Q529.95-55.95 532.42-57.15L532.42-57.15L532.42-57.15Q534.90-58.35 534.90-58.35L534.90-58.35L534.90-58.35Q533.55-65.25 532.65-70.65L532.65-70.65L532.65-70.65Q531.90-75.30 531.22-79.20L531.22-79.20L531.22-79.20Q530.55-83.10 530.55-83.40L530.55-83.40L530.55-83.40Q530.55-85.35 531.38-86.33L531.38-86.33L531.38-86.33Q532.20-87.30 533.25-87.30L533.25-87.30L533.25-87.30Q534.90-87.30 535.35-85.05L535.35-85.05L535.35-85.05Q537-76.95 538.42-70.65L538.42-70.65L538.42-70.65Q539.85-64.35 541.20-60.45L541.20-60.45L541.20-60.45Q542.55-60.75 545.85-62.17L545.85-62.17L545.85-62.17Q549.15-63.60 552.75-65.25L552.75-65.25L552.75-65.25Q556.35-66.90 559.27-68.17L559.27-68.17L559.27-68.17Q562.20-69.45 562.65-69.45L562.65-69.45L562.65-69.45Q563.55-69.45 563.77-68.85L563.77-68.85L563.77-68.85Q564-68.25 564.30-67.80Z" fill="#005c92"></path></g></g><style>text {
  font-size: 64px;
  font-family: Arial Black;
  dominant-baseline: central;
  text-anchor: middle;
}</style></svg>